<svg width="85" height="30" viewBox="0 0 85 30" fill="none" xmlns="http://www.w3.org/2000/svg">
<path d="M58.4481 26.9899C58.2583 26.9675 58.1646 26.9158 58.1436 26.8216C58.1214 26.7219 58.1808 26.5668 58.3922 26.1724C58.4667 26.0333 58.576 25.8251 58.635 25.7098C58.6955 25.5913 60.6138 22.2885 63.0399 18.1253C65.4037 14.0693 67.3568 10.7168 67.3802 10.6754C67.4463 10.5584 67.7926 9.88963 67.8941 9.683C68.0774 9.30948 68.2306 8.94484 68.3381 8.62613C68.3704 8.53026 68.3969 8.44767 68.3969 8.4426C68.3969 8.43751 67.5223 8.43311 66.4461 8.43278C65.3732 8.43246 64.3424 8.42746 64.1554 8.42169C63.6883 8.40725 63.5442 8.42341 63.4588 8.49985C63.382 8.56851 63.387 8.49282 63.3834 9.65874C63.3808 10.4706 63.3832 10.7356 63.3939 10.8314C63.4037 10.919 63.4077 11.1324 63.4077 11.5629C63.4077 12.1278 63.4063 12.1748 63.3881 12.2282C63.3646 12.2969 63.3198 12.3517 63.2609 12.3838L63.2177 12.4074L60.7906 12.4102C59.0419 12.4122 58.3515 12.4097 58.3202 12.4011C58.2575 12.3839 58.203 12.3237 58.1793 12.2456C58.1619 12.1881 58.1602 12.1463 58.1628 11.842C58.1648 11.609 58.1606 11.4393 58.1496 11.3006C58.1356 11.1253 58.1335 10.644 58.1335 7.66268C58.1335 4.23976 58.1336 4.22651 58.1549 4.16854C58.179 4.10286 58.2361 4.03695 58.288 4.01485C58.3175 4.00228 59.3113 4 64.768 4C69.1078 4 71.2575 4.00363 71.3492 4.01112C72.0166 4.06559 72.7301 4.3542 73.2659 4.7864C73.4071 4.90025 73.7405 5.24102 73.8596 5.39317C74.1591 5.77563 74.3288 6.14532 74.4053 6.58193C74.4348 6.75006 74.4456 7.16647 74.4267 7.40841C74.3615 8.24518 74.1095 9.01436 73.5752 10.0084C73.4863 10.1736 73.1207 10.8352 72.8706 11.2832C72.6512 11.6762 69.0274 17.9545 68.7647 18.3968C68.5501 18.758 66.5476 22.25 66.4064 22.5092C66.3645 22.5862 66.2838 22.7289 66.2271 22.8264C65.7361 23.6714 65.1826 24.6575 64.9862 25.0374C64.871 25.2603 64.5548 25.846 64.4317 26.0648C64.3668 26.1802 64.2623 26.3762 64.1994 26.5005C63.9949 26.9048 63.9576 26.9478 63.7788 26.9863C63.7121 27.0007 63.4353 27.0015 61.3962 26.9936C58.7996 26.9835 58.9744 26.9835 58.7195 26.9927C58.615 26.9964 58.4929 26.9952 58.4481 26.9899ZM66.359 26.9858C66.2336 26.9574 66.1701 26.8969 66.1611 26.7977C66.157 26.7532 66.1644 26.7318 66.2304 26.5961C66.4502 26.1442 67.1086 24.9095 67.816 23.6227L68.4635 22.4447L70.7761 18.5395C74.5793 12.117 74.6426 12.0096 75.0357 11.3113C75.5675 10.3666 75.9937 9.50946 76.2366 8.89577C76.4982 8.23516 76.6072 7.76874 76.6191 7.25969C76.6254 6.99145 76.611 6.81462 76.5631 6.57379C76.4495 6.00192 76.133 5.33271 75.662 4.66799C75.4877 4.42214 75.4186 4.29096 75.4187 4.20669C75.4188 4.15753 75.4538 4.09621 75.5031 4.05914C75.5873 3.99581 75.4475 3.99917 77.8534 4.00273L80.0593 4.00599L80.2071 4.03027C80.6347 4.10049 80.9646 4.2171 81.337 4.42963C81.6649 4.61678 81.8726 4.77708 82.1131 5.0284C82.3909 5.31874 82.552 5.54135 82.6886 5.82349C82.8659 6.18973 82.9366 6.5276 82.9366 7.00799C82.9366 8.18025 82.4598 9.538 81.3559 11.5088C81.2713 11.6599 80.9895 12.1441 80.7297 12.5849C80.4699 13.0257 79.7252 14.2991 79.0747 15.4147C78.4242 16.5302 77.8727 17.4751 77.849 17.5145C77.8253 17.5539 77.1967 18.6309 76.4521 19.9078C75.5505 21.4539 75.095 22.2448 75.0886 22.2753C75.0771 22.33 75.0999 22.387 75.1475 22.4225L75.1773 22.4447L78.9276 22.4464C80.9903 22.4474 82.7078 22.4509 82.7442 22.4541C82.8603 22.4645 82.9433 22.5142 82.98 22.5953C82.9988 22.6367 82.9995 22.7196 82.9998 24.7363L83 26.8344L82.9735 26.8741C82.9425 26.9206 82.8806 26.9597 82.8001 26.9837C82.748 26.9992 82.0018 27.0006 74.5799 26.9998C68.1875 26.9991 66.4045 26.9961 66.359 26.9858ZM9.83651 22.8304C7.19788 22.7591 5.03395 21.5889 3.85604 19.5963C2.88754 17.9579 2.72929 15.8336 3.44032 14.0158C4.22067 12.0207 5.99565 10.5817 8.26377 10.1054C8.75323 10.0026 9.1934 9.94946 9.7362 9.92776C10.0908 9.91359 15.1728 9.91379 15.5278 9.92799C16.7603 9.9773 17.8483 10.2504 18.8275 10.7563C19.5862 11.1483 20.2295 11.6559 20.7768 12.2945C20.9077 12.4472 21.0113 12.5859 21.0016 12.5955C20.9936 12.6036 19.249 13.7394 19.1379 13.8089L19.0998 13.8327L19.0417 13.744C18.7913 13.3621 18.4368 13.0239 18.0282 12.777C17.4295 12.4153 16.6959 12.2122 15.7337 12.1416C15.4569 12.1213 9.81245 12.1213 9.53558 12.1416C8.65701 12.2061 8.01655 12.3648 7.43961 12.661C6.47033 13.1588 5.87897 13.9899 5.64527 15.183C5.56897 15.5725 5.54415 15.8715 5.54481 16.3933C5.54535 16.8273 5.5572 17.0156 5.60368 17.3292C5.8507 18.9961 6.7617 20.0297 8.33929 20.4329C8.75747 20.5398 9.15799 20.596 9.67813 20.621C9.98441 20.6356 15.2742 20.6356 15.5806 20.621C16.7281 20.566 17.6147 20.2991 18.2866 19.8062C18.561 19.6049 18.8459 19.3065 19.0388 19.0182C19.0724 18.9679 19.1056 18.9273 19.1125 18.928C19.122 18.9289 20.7707 19.995 20.9785 20.1346L21.0176 20.1609L20.9581 20.2377C20.5843 20.7203 20.1215 21.1623 19.6142 21.5213C19.0054 21.9519 18.2998 22.2879 17.5397 22.5092C16.9764 22.6731 16.4832 22.7581 15.7496 22.8176C15.6396 22.8266 14.7999 22.8305 12.7719 22.8317C11.2184 22.8326 9.89749 22.832 9.83651 22.8304ZM26.5039 22.8092C25.768 22.7621 25.1664 22.6388 24.5928 22.4175C23.8067 22.1144 23.1172 21.6162 22.5899 20.9708C21.9056 20.1331 21.4783 19.045 21.3669 17.8564C21.3359 17.5257 21.3429 17.0443 21.3838 16.6891C21.5527 15.2227 22.223 13.9171 23.2377 13.0785C24.1936 12.2884 25.4298 11.8856 26.8984 11.8857C28.9039 11.8858 30.4687 12.6287 31.4582 14.0508C31.8942 14.6775 32.2015 15.4263 32.3577 16.2427C32.4299 16.6201 32.4586 16.9348 32.4586 17.3507C32.4586 17.777 32.429 18.0931 32.3532 18.4788C32.0209 20.1675 31.0889 21.4788 29.7142 22.1918C29.079 22.5212 28.3834 22.7122 27.5176 22.795C27.4021 22.806 26.6248 22.8169 26.5039 22.8092ZM27.3177 20.9598C27.7804 20.9103 28.1352 20.8065 28.5183 20.6086C29.4406 20.132 30.0825 19.1418 30.2569 17.9264C30.4107 16.8549 30.117 15.7028 29.4863 14.9038C28.9707 14.2505 28.2836 13.8712 27.3962 13.7501C27.1961 13.7228 26.6098 13.7229 26.4089 13.7503C25.993 13.807 25.6721 13.9037 25.3302 14.0755C24.5797 14.4526 24.0202 15.1353 23.7262 16.0329C23.4391 16.9092 23.4392 17.7929 23.7262 18.6686C24.1187 19.8659 24.97 20.6637 26.1079 20.9007C26.2486 20.93 26.4449 20.9594 26.562 20.9687C26.7082 20.9803 27.1776 20.9748 27.3177 20.9598H27.3177ZM36.6881 22.8088C36.4892 22.7897 36.3983 22.7779 36.2763 22.7554C35.7451 22.6573 35.2629 22.4358 34.8403 22.0956C34.69 21.9746 34.3709 21.6453 34.2509 21.4872C33.9039 21.0304 33.6351 20.4974 33.4364 19.8723C33.1225 18.8849 32.9958 17.6069 33.1149 16.63C33.3272 14.8887 34.2779 13.3034 35.5981 12.4896C36.465 11.9552 37.4827 11.7633 38.3721 11.9665C39.3279 12.1849 40.2972 12.9012 41.1002 13.9823L41.2232 14.1479L41.2259 11.2255L41.2285 8.30313L42.3874 8.30586L43.5462 8.3086V15.4627V22.6168L42.3874 22.6196L41.2286 22.6223L41.2259 21.7197L41.2232 20.8171L41.1387 20.9189C41.032 21.0476 40.7385 21.3418 40.6002 21.4587C39.6878 22.2309 38.5029 22.7165 37.3164 22.8048C37.1815 22.8148 36.7773 22.8174 36.6881 22.8088ZM37.7123 20.8361C38.2055 20.8077 38.6424 20.7103 39.0956 20.5278C39.9232 20.1945 40.6619 19.5994 41.1583 18.8661L41.2285 18.7625V17.5424V16.3224L41.13 16.1561C40.4228 14.9618 39.6591 14.2239 38.8604 13.9633C38.6492 13.8943 38.5226 13.8745 38.2561 13.8683C38.0684 13.864 37.9785 13.8668 37.8602 13.8807C37.5169 13.9211 37.2286 14.0048 36.9447 14.1468C36.247 14.4956 35.7353 15.1864 35.4999 16.0974C35.4382 16.3362 35.4055 16.5172 35.3716 16.8075C35.3486 17.0048 35.3452 17.7186 35.3662 17.9532C35.412 18.4657 35.484 18.8524 35.6026 19.2221C35.8907 20.1202 36.4008 20.6589 37.1007 20.8042C37.2887 20.8433 37.4462 20.8515 37.7123 20.8361ZM49.7338 22.8084C48.0768 22.7215 46.7353 22.0916 45.8198 20.9708C45.1646 20.1687 44.7395 19.1246 44.6133 18.007C44.4712 16.7494 44.7476 15.4342 45.3778 14.3688C45.8385 13.5899 46.4486 12.993 47.2207 12.5659C48.0264 12.1203 49.0293 11.8856 50.1283 11.8857C52.1337 11.8858 53.6987 12.6288 54.688 14.0508C55.2995 14.9297 55.6529 16.0377 55.6907 17.1948C55.6968 17.3794 55.6825 17.7696 55.6663 17.8644L55.6603 17.8994H51.2212H46.7821L46.7872 17.9236C46.79 17.9369 46.8 17.989 46.8094 18.0393C46.9065 18.5589 47.1368 19.1068 47.4387 19.5367C47.8741 20.1566 48.4739 20.5966 49.1807 20.8146C49.3503 20.8668 49.6263 20.9251 49.8288 20.9512C50.0367 20.9781 50.5539 20.9781 50.7422 20.9512C51.3997 20.8575 51.9851 20.6047 52.5531 20.1691C52.8437 19.9462 53.1432 19.6512 53.3637 19.3708L53.4798 19.2231L53.5232 19.2496C53.5472 19.2642 53.9528 19.5073 54.4246 19.79C54.8965 20.0726 55.2826 20.3079 55.2826 20.313C55.2826 20.3181 55.2532 20.3616 55.2173 20.4098C54.9315 20.7935 54.4716 21.2426 54.0366 21.5627C53.0253 22.3069 51.8582 22.7242 50.5627 22.8048C50.4057 22.8146 49.8941 22.8168 49.7338 22.8084V22.8084ZM53.3186 16.0617C53.3186 16.0153 53.186 15.6902 53.084 15.4865C52.9312 15.1812 52.7505 14.9233 52.5217 14.6841C52.3512 14.5058 52.2236 14.3961 52.0459 14.2747C51.5959 13.9676 51.111 13.7988 50.5099 13.74C50.2936 13.7188 49.8344 13.7248 49.6335 13.7515C49.23 13.805 48.9028 13.9037 48.5617 14.0746C47.8471 14.4327 47.3136 15.0593 47.0001 15.9086C46.9733 15.981 46.9515 16.047 46.9515 16.0554C46.9515 16.0684 47.4026 16.0705 50.135 16.0705C51.886 16.0705 53.3186 16.0665 53.3186 16.0617Z" fill="white"/>
</svg>
