<svg width="85" height="41" viewBox="0 0 85 41" fill="none" xmlns="http://www.w3.org/2000/svg">
<path d="M21.6019 37.5143C21.3414 37.4708 20.6831 37.2867 20.1391 37.1051C18.0886 36.4206 16.5292 35.6626 13.7577 34.0033C9.80629 31.6375 7.01859 30.5829 3.97387 30.302C3.42077 30.251 2.80367 30.1986 2.60254 30.1856L2.23685 30.1619L3.15107 29.7069C4.29801 29.136 4.76894 28.6897 4.9439 28.0077C5.12442 27.3042 5.13322 5.56323 4.9533 4.79418C4.77287 4.02293 4.36455 3.54409 3.43313 3.01145C1.94997 2.16329 1.60493 2.24086 6.87653 2.2374C9.42835 2.23573 11.5157 2.26521 11.5151 2.30293C11.5144 2.34064 11.0737 2.59776 10.5355 2.87431C8.96606 3.68083 8.64083 4.0575 8.50047 5.23124C8.38702 6.17992 8.39564 26.6056 8.50981 27.3629C8.6195 28.0906 8.85425 28.5579 9.29095 28.9179C9.66861 29.2292 10.0694 29.4055 12.2019 30.1982C13.8264 30.8021 15.2262 31.3523 17.4129 32.2464C21.6946 33.9971 24.1991 34.6548 25.7498 34.4355C26.467 34.3341 27.9219 33.9003 28.435 33.635C28.7983 33.4471 28.8145 33.4601 28.6642 33.8197C28.4362 34.3655 27.9662 34.979 27.1541 35.791C26.5021 36.4429 26.2282 36.6428 25.5038 36.9954C25.0261 37.2278 24.4173 37.4623 24.1508 37.5164C23.5907 37.6302 22.2892 37.6291 21.6019 37.5143ZM31.0501 34.4455C30.9568 34.3522 30.9777 34.0493 31.0774 34.0493C31.1588 34.0493 31.3548 34.3357 31.3548 34.4547C31.3548 34.5266 31.1243 34.5196 31.0501 34.4455ZM34.9362 34.3499C35.2764 34.1389 35.3774 33.8643 35.3774 33.1511C35.3774 32.5594 35.2532 32.2123 34.9713 32.0166C34.9076 31.9723 34.9067 31.9489 34.9685 31.948C35.1392 31.9454 35.4677 32.2277 35.6065 32.4961C35.7992 32.8688 35.7805 33.5793 35.5696 33.8993C35.3945 34.1648 34.9495 34.5067 34.7832 34.5034C34.7329 34.5024 34.8018 34.4333 34.9362 34.3499ZM37.2101 34.3156C37.2744 34.1956 37.301 33.721 37.2819 33.0356C37.2544 32.0476 37.2664 31.9464 37.4116 31.9465C37.556 31.9465 37.5716 32.066 37.5716 33.1732C37.5716 34.0689 37.6024 34.4122 37.6858 34.4459C37.7487 34.4712 37.6444 34.4952 37.4541 34.4992C37.1308 34.506 37.1147 34.4939 37.2101 34.3156ZM39.0572 34.4077C39.1452 34.3564 39.2172 34.2572 39.2172 34.1873C39.2172 34.1173 39.2653 34.0304 39.3241 33.994C39.3975 33.9486 39.4114 33.9792 39.3683 34.0916C39.3337 34.1816 39.3523 34.3118 39.4096 34.3809C39.4945 34.4832 39.4567 34.5059 39.2055 34.5036C38.9518 34.5014 38.9255 34.4844 39.0572 34.4077ZM40.8283 34.3731C40.8564 34.2997 40.8313 34.094 40.7726 33.9159C40.6664 33.5941 40.6626 33.5922 40.1288 33.5922C39.7139 33.5922 39.5708 33.6286 39.4987 33.7522C39.4475 33.8402 39.4058 33.871 39.406 33.8208C39.4068 33.6822 39.6673 33.2552 39.671 33.3865C39.6732 33.4626 39.8303 33.5008 40.1412 33.5008C40.6577 33.5008 40.6425 33.5566 40.3339 32.7926C40.2477 32.5791 40.1518 32.4042 40.1209 32.404C40.0901 32.404 39.9931 32.5913 39.9056 32.8207C39.818 33.05 39.7308 33.2221 39.7118 33.2031C39.6609 33.1522 40.1516 31.9466 40.2232 31.9466C40.2568 31.9466 40.4797 32.43 40.7185 33.0208C40.9573 33.6116 41.2118 34.1876 41.2841 34.3007C41.4113 34.4999 41.4053 34.5064 41.0963 34.5064C40.8541 34.5064 40.7894 34.4742 40.8283 34.3731ZM47.61 33.2267C47.6344 32.0946 47.6556 31.9466 47.7928 31.9465C47.931 31.9464 47.9454 32.0591 47.9242 32.975C47.8908 34.4206 47.8886 34.415 48.4947 34.415C48.8905 34.415 49.0331 34.3729 49.1921 34.2093C49.3563 34.0404 49.3814 34.0335 49.3328 34.1711C49.3002 34.2632 49.2736 34.3763 49.2736 34.4225C49.2736 34.4686 48.8931 34.5065 48.428 34.5066H47.5823L47.61 33.2267ZM52.1278 34.3921C52.2083 34.3293 52.4881 33.7533 52.7494 33.1122C53.0108 32.4711 53.2543 31.9466 53.2904 31.9466C53.3266 31.9466 53.4872 32.2916 53.6474 32.7133C53.8076 33.1349 54.0551 33.7109 54.1975 33.9932L54.4564 34.5064H54.1534C53.9255 34.5064 53.8631 34.4734 53.9016 34.3731C53.9298 34.2997 53.9041 34.0921 53.8446 33.9118L53.7364 33.5839L53.1769 33.6109C52.6203 33.6378 52.6167 33.6398 52.4843 33.9887C52.3695 34.291 52.369 34.3508 52.4808 34.4215C52.5722 34.4794 52.5175 34.504 52.2959 34.505C52.0272 34.5062 52.0027 34.4898 52.1278 34.3921ZM53.6619 33.4664C53.6619 33.3656 53.191 32.387 53.1582 32.4198C53.1369 32.4411 53.0158 32.693 52.889 32.9797L52.6585 33.5008H53.1602C53.4361 33.5008 53.6619 33.4853 53.6619 33.4664ZM56.3034 34.3696C56.1723 34.2983 55.9886 34.1251 55.8952 33.9847C55.6669 33.6413 55.6614 32.8033 55.8854 32.4616C56.0461 32.2162 56.5454 31.8559 56.7245 31.8559C56.7748 31.8559 56.6865 31.9348 56.5282 32.0313C56.1667 32.2518 56.0044 32.7184 56.0593 33.3798C56.1089 33.9786 56.3882 34.3143 56.9226 34.4176L57.2731 34.4854L56.9074 34.4922C56.7062 34.496 56.4344 34.4408 56.3034 34.3696ZM59.312 33.2267C59.3379 32.0286 59.3511 31.9466 59.5177 31.9466C59.7093 31.9466 59.7274 32.1301 59.6965 33.7522L59.6838 34.415H60.189C60.5928 34.415 60.7344 34.3737 60.8942 34.2093C61.0583 34.0404 61.0835 34.0335 61.0349 34.1711C61.0023 34.2632 60.9757 34.3763 60.9757 34.4225C60.9757 34.4686 60.5951 34.5065 60.13 34.5066H59.2843L59.312 33.2267ZM63.5151 34.3641C63.8033 34.1623 63.7718 33.8363 63.437 33.5546C63.2823 33.4244 63.1192 33.3179 63.0745 33.3179C63.0299 33.3179 62.8479 33.1902 62.6702 33.0342C62.2932 32.7032 62.2433 32.343 62.5375 32.0768C62.7275 31.9049 62.7277 31.9051 62.6144 32.1537C62.5162 32.3692 62.5245 32.4293 62.6753 32.5974C62.7713 32.7043 63.0593 32.9104 63.3154 33.0554C63.7539 33.3038 63.9926 33.6088 63.9926 33.9206C63.9926 34.0874 63.5886 34.5064 63.4279 34.5064C63.3641 34.5064 63.4034 34.4424 63.5151 34.3641ZM66.5315 34.2837C66.8003 33.9419 66.6872 33.7031 66.0907 33.3529C65.5437 33.0317 65.2725 32.7427 65.2725 32.4808C65.2725 32.2828 65.6584 31.8552 65.8372 31.8552C65.901 31.8552 65.8617 31.9192 65.75 31.9975C65.3613 32.2697 65.4826 32.5389 66.2096 33.0182C66.7859 33.3981 66.8762 33.4946 66.9015 33.7582C66.9322 34.0778 66.8238 34.2697 66.5213 34.4317C66.3445 34.5263 66.3448 34.521 66.5315 34.2837ZM69.7421 34.3788C70.0732 34.1953 70.2025 33.8798 70.2061 33.2464C70.2099 32.5735 70.0322 32.0812 69.7536 31.9928C69.6447 31.9582 69.5754 31.9101 69.5997 31.8858C69.6968 31.7887 70.2032 32.1437 70.3833 32.4351C70.7536 33.0342 70.555 33.9883 69.9881 34.334C69.8332 34.4285 69.6653 34.5044 69.6151 34.5028C69.5648 34.5013 69.6219 34.4454 69.7421 34.3788ZM71.9235 34.4459C72.0069 34.4122 72.0378 34.0689 72.0378 33.1732C72.0378 32.066 72.0533 31.9466 72.1977 31.9465C72.3425 31.9464 72.3557 32.052 72.3368 33.0531C72.325 33.6709 72.3567 34.2363 72.4085 34.3331C72.4922 34.4895 72.4675 34.5057 72.1552 34.4992C71.9649 34.4953 71.8606 34.4712 71.9235 34.4459ZM73.3506 34.1636C72.5771 33.1055 72.5925 33.1351 72.8148 33.1351C73.0287 33.1351 73.3177 32.7936 73.3177 32.5408C73.3177 32.4151 73.2354 32.23 73.1348 32.1294C72.9622 31.9568 72.9614 31.9466 73.1206 31.9466C73.366 31.9466 73.5919 32.2391 73.5919 32.5567C73.5919 32.8291 73.3584 33.1351 73.1505 33.1351C73.0916 33.1351 73.0434 33.178 73.0434 33.2304C73.0434 33.3697 73.7456 34.2975 73.934 34.4072C74.0725 34.4879 74.0605 34.5012 73.848 34.5036C73.6667 34.5057 73.5348 34.4155 73.3506 34.1636ZM75.4145 34.3764C75.4884 34.2873 75.5136 33.8838 75.4943 33.0963C75.4674 31.9978 75.4743 31.9463 75.6489 31.9463C75.8236 31.9463 75.8305 31.9978 75.8036 33.0963C75.7843 33.8838 75.8094 34.2873 75.8834 34.3764C75.9734 34.4849 75.9346 34.5064 75.6489 34.5064C75.3632 34.5064 75.3244 34.4849 75.4145 34.3764ZM77.8358 34.334C77.1667 33.926 77.0539 32.845 77.6195 32.2614C77.7873 32.0883 77.9649 31.9466 78.0141 31.9466C78.0633 31.9466 78.0116 32.0444 77.8993 32.164C77.4756 32.615 77.5626 33.9428 78.0405 34.3187C78.339 34.5535 78.2114 34.5631 77.8358 34.334ZM33.7283 34.1636C33.1027 33.6031 33.2236 32.4079 33.945 32.0218C34.0931 31.9425 34.0894 31.965 33.9157 32.2C33.7851 32.3766 33.7012 32.6538 33.6711 33.0077C33.6329 33.4569 33.6625 33.6187 33.849 33.9807C33.972 34.2196 34.0583 34.415 34.0408 34.415C34.0233 34.415 33.8827 34.3019 33.7283 34.1636ZM44.0081 34.2779C44.1691 33.8448 44.0904 33.704 43.4665 33.31C42.6365 32.7858 42.5044 32.4908 42.9156 32.0796C43.039 31.9561 43.1922 31.8552 43.2559 31.8552C43.3197 31.8552 43.2804 31.9192 43.1687 31.9975C42.78 32.2697 42.9013 32.5389 43.6283 33.0182C44.2235 33.4105 44.2939 33.4882 44.3184 33.7797C44.3388 34.0227 44.2947 34.1492 44.1429 34.2825C43.9416 34.4594 43.9406 34.4594 44.0081 34.2779ZM62.3542 34.0983C62.3582 33.9456 62.3841 33.8825 62.4118 33.9579C62.4396 34.0333 62.517 34.1582 62.5839 34.2354C62.6878 34.3553 62.6794 34.3758 62.5263 34.3758C62.386 34.3758 62.3486 34.3155 62.3542 34.0983ZM65.2797 34.0693C65.2837 33.8823 65.3098 33.791 65.3378 33.8665C65.3658 33.9419 65.4235 34.0715 65.466 34.1544C65.5189 34.2575 65.5005 34.3218 65.408 34.3573C65.3026 34.3977 65.2741 34.3338 65.2797 34.0693ZM68.5474 34.1528C68.285 33.9184 68.2504 33.8287 68.221 33.3071C68.1849 32.6678 68.3631 32.2433 68.7554 32.0333C68.9562 31.9258 68.9561 31.9266 68.7415 32.228C68.4436 32.6463 68.4351 33.5876 68.7246 34.0784C68.9638 34.4837 68.9324 34.4968 68.5474 34.1528ZM79.0974 34.1327C79.2697 33.8994 79.3058 33.7344 79.3058 33.1804C79.3058 32.6263 79.2697 32.4616 79.0974 32.2285C78.8388 31.8787 78.9594 31.8589 79.2829 32.198C79.8098 32.7503 79.8316 33.5343 79.3359 34.0989C78.9915 34.4912 78.8141 34.5163 79.0974 34.1327ZM80.9971 34.1516C80.9971 34.0283 81.0079 33.9446 81.021 33.9655C81.0341 33.9865 81.1147 34.0873 81.2002 34.1897C81.3479 34.3665 81.3467 34.3758 81.1764 34.3758C81.0471 34.3758 80.9971 34.3134 80.9971 34.1516ZM82.2843 34.2185C82.4431 33.9219 82.273 33.6699 81.6435 33.2688C81.3061 33.0539 81.0608 32.8278 81.0295 32.703C80.9552 32.4069 81.0597 32.0686 81.2478 31.997C81.3767 31.9479 81.3859 31.9586 81.2943 32.0509C81.0109 32.3363 81.2525 32.6881 82.0191 33.1065C82.5276 33.384 82.7074 33.7159 82.5438 34.075C82.484 34.2062 82.378 34.3354 82.3083 34.3622C82.2059 34.4015 82.2013 34.3737 82.2843 34.2185ZM31.6115 33.148C31.5846 31.9979 31.5912 31.9463 31.7662 31.9462C31.9414 31.9462 31.9472 31.9919 31.9034 33.0393C31.8755 33.7054 31.8151 34.1748 31.7486 34.241C31.6643 34.3251 31.6333 34.0781 31.6115 33.148ZM42.7826 34.1864C42.7826 34.111 42.7988 34.0493 42.8186 34.0493C42.8383 34.0493 42.8782 34.111 42.9071 34.1864C42.9361 34.2619 42.9199 34.3236 42.8712 34.3236C42.8225 34.3236 42.7826 34.2619 42.7826 34.1864ZM48.7915 33.1891C48.6381 33.0727 48.6393 33.0635 48.8144 33.0177C48.9523 32.9817 48.9993 33.0137 48.9993 33.1436C48.9993 33.3482 49.0008 33.3479 48.7915 33.1891ZM60.4936 33.1891C60.3401 33.0727 60.3414 33.0635 60.5164 33.0177C60.6543 32.9817 60.7014 33.0137 60.7014 33.1436C60.7014 33.3482 60.7029 33.3479 60.4936 33.1891ZM44.0477 32.2564C43.9641 32.078 43.9192 31.9556 43.9479 31.9843C43.9765 32.013 44.0552 31.9906 44.1227 31.9346C44.222 31.8522 44.2454 31.9047 44.2454 32.2097C44.2454 32.417 44.2351 32.5852 44.2225 32.5836C44.21 32.5819 44.1313 32.4347 44.0477 32.2564ZM57.7001 32.3034C57.6343 32.1979 57.606 32.086 57.6374 32.0546C57.7043 31.9877 57.8639 32.2155 57.8659 32.3809C57.8678 32.5388 57.8386 32.5251 57.7001 32.3034ZM63.7183 32.3881C63.7183 32.3292 63.6582 32.2146 63.5848 32.1334C63.4661 32.0023 63.4712 31.9858 63.6305 31.9858C63.7657 31.9858 63.8097 32.0484 63.8097 32.2405C63.8097 32.3805 63.7892 32.4951 63.764 32.4951C63.7389 32.4951 63.7183 32.4469 63.7183 32.3881ZM82.3685 32.3881C82.3685 32.3292 82.3084 32.2146 82.2349 32.1334C82.1163 32.0023 82.1214 31.9858 82.2806 31.9858C82.4158 31.9858 82.4599 32.0484 82.4599 32.2405C82.4599 32.3805 82.4393 32.4951 82.4142 32.4951C82.389 32.4951 82.3685 32.4469 82.3685 32.3881ZM49.1213 32.1685C49.0637 32.0465 49.051 31.9466 49.0932 31.9466C49.1727 31.9466 49.3149 32.3015 49.2581 32.3582C49.2405 32.3759 49.1789 32.2905 49.1213 32.1685ZM60.814 32.1294C60.7188 31.9769 60.7227 31.9466 60.8377 31.9466C60.9147 31.9466 60.9757 32.0274 60.9757 32.1294C60.9757 32.23 60.965 32.3123 60.9519 32.3123C60.9389 32.3123 60.8768 32.23 60.814 32.1294ZM66.6119 32.1781C66.5836 32.1043 66.5997 32.0196 66.6478 31.9898C66.6959 31.9601 66.7353 32.0205 66.7353 32.1241C66.7353 32.3448 66.6844 32.3671 66.6119 32.1781ZM34.5089 31.2152C34.596 30.9242 34.6019 30.9187 34.784 30.9557C34.9095 30.9812 34.8926 31.0269 34.6884 31.2152L34.4405 31.4438L34.5089 31.2152ZM69.3253 31.2763C69.359 31.1842 69.3865 31.0711 69.3865 31.0249C69.3865 30.9787 69.4482 30.941 69.5236 30.941C69.7172 30.941 69.6939 31.0664 69.4624 31.2696C69.2751 31.4341 69.2675 31.4345 69.3253 31.2763ZM18.6929 29.0966C16.2976 28.8825 14.6249 27.7522 14.0488 25.9584C13.7052 24.8887 13.6857 24.5497 13.6292 18.6904L13.5732 12.8851L13.3554 12.4591C13.1 11.9594 12.7529 11.6768 12.2729 11.5778C11.9458 11.5102 11.9261 11.4862 11.8995 11.1213C11.874 10.7717 11.895 10.7273 12.128 10.6407C12.2692 10.5882 12.6933 10.4041 13.0704 10.2316C13.4475 10.059 14.3114 9.67428 14.9903 9.37656L16.2245 8.83525L16.2748 16.6655L16.3252 24.4957L16.5671 25.3886C16.8689 26.5029 17.174 27.0698 17.7803 27.6432C18.5492 28.3704 19.6307 28.599 21.0973 28.3444C22.6979 28.0664 23.8271 27.2245 24.5807 25.7473L24.7796 25.3574L24.7532 19.1212C24.7268 12.8902 24.7266 12.8847 24.525 12.508C24.2874 12.0638 23.851 11.6726 23.5083 11.5966C22.9495 11.4727 22.944 11.4679 22.944 11.1086C22.944 10.7846 22.9699 10.7515 23.3325 10.6119C23.5462 10.5296 24.5439 10.0967 25.5495 9.64991L27.378 8.83755L27.4237 17.718C27.46 24.7721 27.4941 26.6548 27.5895 26.8727C27.8334 27.4297 28.4626 27.924 28.9276 27.924C29.1386 27.924 29.1607 27.9587 29.1607 28.2897V28.6554H26.9666H24.7724V27.7869C24.7724 27.2688 24.7355 26.9184 24.681 26.9184C24.6307 26.9184 24.5896 26.959 24.5896 27.0087C24.5896 27.2533 23.4427 28.214 22.7347 28.5623C21.6415 29.1003 20.4683 29.2553 18.6929 29.0966ZM73.045 28.7852C70.5058 28.3223 68.6664 27.3221 67.211 25.6129C65.8144 23.9727 65.0897 21.8416 65.0901 19.376C65.0901 16.5089 65.9901 14.2081 67.8261 12.3788C69.0554 11.1539 70.5278 10.3822 72.4034 9.97971C73.6934 9.7029 75.9252 9.70653 76.9105 9.98702C77.8467 10.2535 78.5199 10.6013 79.3364 11.2402C80.5438 12.1849 81.5158 13.6138 82.2277 15.4906C82.4088 15.9683 82.5985 16.457 82.649 16.5766C82.6996 16.6962 82.7256 16.8096 82.7067 16.8284C82.6642 16.8709 80.9978 17.3452 76.1518 18.6942C75.2215 18.9532 73.8433 19.3403 73.0891 19.5546C72.3349 19.7689 71.1554 20.0998 70.4682 20.2901C69.7809 20.4803 69.1728 20.6642 69.1168 20.6988C68.9968 20.773 69.2604 22.0028 69.5797 22.858C70.2133 24.5548 71.5651 26.4633 72.9014 27.5475C74.4282 28.7862 76.0755 29.0378 77.7059 28.2813C78.5661 27.8822 79.4607 26.9314 79.8917 25.9584C80.3314 24.9658 80.5499 23.3762 80.3755 22.4387C80.324 22.1621 80.2886 21.9293 80.2967 21.9212C80.3048 21.9131 80.8516 22.2237 81.5119 22.6114L82.7122 23.3164L82.4654 24.0432C82.0077 25.391 81.5093 26.1789 80.5857 27.0147C79.5445 27.9569 78.2921 28.5366 76.6606 28.8316C75.9258 28.9644 73.8846 28.9382 73.045 28.7852ZM71.6262 19.5514C72.9839 19.1702 74.3416 18.7825 74.6433 18.6899C74.945 18.5973 76.2615 18.2231 77.5688 17.8584C78.8761 17.4937 79.9639 17.181 79.986 17.1636C80.1077 17.0679 79.1206 14.8405 78.576 13.9821C77.6788 12.5681 76.5086 11.4625 75.382 10.9645C73.3266 10.0559 71.0015 10.7246 69.7135 12.5947C68.8359 13.869 68.4243 16.286 68.6942 18.5815C68.8618 20.0073 68.913 20.2445 69.0534 20.2445C69.1107 20.2445 70.2684 19.9326 71.6262 19.5514ZM29.8007 28.3017C29.8007 27.9577 29.8107 27.9467 30.1698 27.8986C30.6602 27.8328 31.105 27.4784 31.3683 26.9437L31.5834 26.507V19.7874C31.5834 14.3654 31.5595 13.0002 31.4594 12.7172C31.2593 12.151 30.8529 11.7609 30.2938 11.5984C29.8101 11.4578 29.8007 11.4485 29.8007 11.1112C29.8007 10.7754 29.814 10.7619 30.3721 10.5332C30.6863 10.4043 31.4166 10.0851 31.9948 9.82377C32.573 9.56242 33.3238 9.23127 33.6633 9.08787L34.2804 8.82713V9.60351V10.3799L34.9085 9.74301C35.8992 8.7384 36.8445 8.35965 38.3612 8.35965C41.272 8.35965 43.0878 9.26011 44.0606 11.186L44.2645 11.5896L44.6193 10.9153C45.0817 10.0366 46.0047 9.09665 46.7206 8.77536C47.4981 8.42644 48.1639 8.33127 49.4107 8.39083C52.6312 8.54466 54.4015 9.92855 55.1016 12.8393C55.2216 13.338 55.2533 14.4997 55.2989 20.0617C55.3585 27.3425 55.3242 26.9305 55.9164 27.4786C56.2545 27.7915 56.5203 27.924 56.8099 27.924C57.0226 27.924 57.0445 27.9581 57.0445 28.2897V28.6554H53.9361H50.8278V28.2897C50.8278 27.9591 50.85 27.924 51.06 27.924C51.3907 27.924 51.9697 27.6064 52.181 27.309C52.2801 27.1696 52.4068 26.8909 52.4625 26.6898C52.5919 26.2226 52.6004 14.9949 52.4725 13.4513C52.285 11.1883 51.4043 9.65794 50.0432 9.22981C49.6564 9.10816 49.3103 9.07923 48.5605 9.10589C47.7001 9.13648 47.5108 9.17442 46.9881 9.42101C46.0797 9.8495 45.4577 10.5507 44.938 11.7318L44.6811 12.3156L44.6968 19.1786C44.7065 23.4389 44.7478 26.2065 44.8057 26.4766C44.9721 27.2522 45.6094 27.924 46.1788 27.924C46.422 27.924 46.4395 27.9485 46.4395 28.2897V28.6554H43.3769H40.3142V28.2897C40.3142 27.9587 40.3363 27.924 40.5473 27.924C41.0353 27.924 41.5697 27.4923 41.8183 26.8972C42.0261 26.3999 42.0288 14.2654 41.8214 12.8851C41.5834 11.3009 41.2194 10.5142 40.3872 9.78628C39.7291 9.21054 39.1777 9.05747 37.951 9.10997C37.1241 9.14537 36.8946 9.19074 36.4288 9.41086C35.7463 9.73338 34.8758 10.6061 34.5278 11.3169L34.2752 11.8327L34.3006 19.2613C34.3281 27.2758 34.301 26.8487 34.8172 27.4065C35.116 27.7294 35.4798 27.924 35.7843 27.924C35.9953 27.924 36.0174 27.9587 36.0174 28.2897V28.6554H32.909H29.8007V28.3017ZM57.8673 28.2897C57.8673 27.9587 57.8894 27.924 58.1004 27.924C58.5883 27.924 59.1228 27.4923 59.3714 26.8972C59.4949 26.6017 59.5129 25.6826 59.5129 19.6885V12.8184L59.2707 12.3733C58.9968 11.8701 58.7551 11.6803 58.2574 11.5776C57.9343 11.5109 57.9113 11.4837 57.8856 11.1368L57.8583 10.7672L59.1656 10.1896C59.8846 9.87193 60.8637 9.43782 61.3413 9.22493L62.2099 8.83786L62.2556 17.7181L62.3013 26.5984L62.5158 27.0339C62.7516 27.5128 63.3214 27.924 63.7492 27.924C63.9722 27.924 63.9926 27.9546 63.9926 28.2897V28.6554H60.9299H57.8673V28.2897ZM59.7887 7.91428C59.4976 7.2543 58.6246 6.3725 57.922 6.02876L57.3951 5.77101L57.7907 5.63729C58.6569 5.34449 59.5117 4.48797 59.881 3.54285C59.9755 3.30086 60.0548 3.18456 60.0572 3.2844C60.073 3.95693 61.2534 5.29797 62.0915 5.59565C62.3326 5.68127 62.5297 5.77252 62.5295 5.79843C62.5293 5.82434 62.3339 5.92487 62.0952 6.02183C61.473 6.27464 60.4165 7.34931 60.1898 7.95999L60.0157 8.42884L59.7887 7.91428ZM78.3916 7.62235C76.9402 6.49273 75.6526 5.77762 74.8615 5.66175C73.9777 5.5323 72.5987 6.13499 70.9321 7.37905C69.8262 8.20455 69.8219 8.20471 70.4918 7.39581C70.8231 6.9957 71.2962 6.41777 71.5431 6.11152C71.79 5.80527 72.4458 5.00304 73.0004 4.32879C73.555 3.65453 74.1238 2.9508 74.2645 2.76495L74.5204 2.42702L74.7711 2.71924C74.909 2.87995 75.3025 3.36114 75.6456 3.78854C75.9886 4.21594 76.4036 4.73019 76.5679 4.93132C77.4278 5.98452 79.2552 8.26786 79.2363 8.26548C79.2242 8.26397 78.8441 7.97456 78.3916 7.62235Z" fill="white"/>
</svg>
