<svg width="85" height="41" viewBox="0 0 85 41" fill="none" xmlns="http://www.w3.org/2000/svg">
<path d="M21.6019 37.5143C21.3414 37.4708 20.6831 37.2867 20.1391 37.1051C18.0886 36.4206 16.5292 35.6626 13.7577 34.0033C9.80629 31.6375 7.01859 30.5829 3.97387 30.302C3.42077 30.251 2.80367 30.1986 2.60254 30.1856L2.23685 30.1619L3.15107 29.7068C4.29801 29.136 4.76894 28.6897 4.9439 28.0077C5.12442 27.3042 5.13322 5.56323 4.9533 4.79418C4.77287 4.02293 4.36455 3.54409 3.43313 3.01145C1.94997 2.16329 1.60493 2.24086 6.87653 2.2374C9.42835 2.23573 11.5157 2.26521 11.5151 2.30293C11.5144 2.34064 11.0737 2.59776 10.5355 2.87431C8.96606 3.68083 8.64083 4.0575 8.50047 5.23124C8.38702 6.17992 8.39564 26.6056 8.50981 27.3629C8.6195 28.0906 8.85425 28.5579 9.29095 28.9179C9.66861 29.2292 10.0694 29.4055 12.2019 30.1982C13.8264 30.8021 15.2262 31.3523 17.4129 32.2464C21.6946 33.9971 24.1991 34.6548 25.7498 34.4355C26.467 34.3341 27.9219 33.9003 28.435 33.6349C28.7983 33.4471 28.8145 33.4601 28.6642 33.8197C28.4362 34.3655 27.9662 34.979 27.1541 35.791C26.5021 36.4429 26.2282 36.6428 25.5038 36.9954C25.0261 37.2278 24.4173 37.4623 24.1508 37.5164C23.5907 37.6301 22.2892 37.6291 21.6019 37.5143ZM18.6929 29.0966C16.2976 28.8825 14.6249 27.7521 14.0488 25.9584C13.7052 24.8887 13.6857 24.5497 13.6292 18.6904L13.5732 12.8851L13.3554 12.4591C13.1 11.9594 12.7529 11.6768 12.2729 11.5777C11.9458 11.5102 11.9261 11.4862 11.8995 11.1213C11.874 10.7717 11.895 10.7273 12.128 10.6407C12.2692 10.5882 12.6933 10.4041 13.0704 10.2316C13.4475 10.059 14.3114 9.67428 14.9903 9.37656L16.2245 8.83525L16.2748 16.6655L16.3252 24.4957L16.5671 25.3886C16.8689 26.5029 17.174 27.0698 17.7803 27.6432C18.5492 28.3704 19.6307 28.599 21.0973 28.3444C22.6979 28.0664 23.8271 27.2245 24.5807 25.7473L24.7796 25.3574L24.7532 19.1212C24.7268 12.8902 24.7266 12.8847 24.525 12.508C24.2874 12.0638 23.851 11.6726 23.5083 11.5966C22.9495 11.4727 22.944 11.4679 22.944 11.1086C22.944 10.7846 22.9699 10.7515 23.3325 10.6119C23.5462 10.5296 24.5439 10.0967 25.5495 9.64991L27.378 8.83755L27.4237 17.718C27.46 24.7721 27.4941 26.6548 27.5895 26.8727C27.8334 27.4297 28.4626 27.924 28.9276 27.924C29.1386 27.924 29.1607 27.9587 29.1607 28.2897V28.6554H26.9666H24.7724V27.7869C24.7724 27.2688 24.7355 26.9184 24.681 26.9184C24.6307 26.9184 24.5896 26.959 24.5896 27.0087C24.5896 27.2533 23.4427 28.214 22.7347 28.5623C21.6415 29.1003 20.4683 29.2553 18.6929 29.0966ZM73.045 28.7852C70.5058 28.3223 68.6664 27.3221 67.211 25.6129C65.8144 23.9727 65.0897 21.8415 65.0901 19.376C65.0901 16.5089 65.9901 14.2081 67.8261 12.3788C69.0554 11.1539 70.5278 10.3822 72.4034 9.97971C73.6934 9.7029 75.9252 9.70653 76.9105 9.98702C77.8467 10.2535 78.5199 10.6013 79.3364 11.2402C80.5438 12.1849 81.5158 13.6138 82.2277 15.4906C82.4088 15.9683 82.5985 16.457 82.649 16.5766C82.6996 16.6962 82.7256 16.8096 82.7067 16.8284C82.6642 16.8709 80.9978 17.3452 76.1518 18.6942C75.2215 18.9532 73.8433 19.3403 73.0891 19.5546C72.3349 19.7689 71.1554 20.0998 70.4682 20.2901C69.7809 20.4803 69.1728 20.6642 69.1169 20.6988C68.9968 20.773 69.2604 22.0028 69.5797 22.858C70.2133 24.5548 71.5651 26.4633 72.9014 27.5475C74.4282 28.7862 76.0755 29.0378 77.7059 28.2813C78.5661 27.8822 79.4607 26.9314 79.8917 25.9584C80.3314 24.9658 80.5499 23.3762 80.3755 22.4387C80.324 22.1621 80.2886 21.9292 80.2967 21.9212C80.3048 21.9131 80.8516 22.2237 81.5119 22.6114L82.7122 23.3164L82.4654 24.0432C82.0077 25.391 81.5093 26.1789 80.5857 27.0147C79.5445 27.9569 78.2921 28.5366 76.6606 28.8316C75.9258 28.9644 73.8846 28.9382 73.045 28.7852ZM71.6262 19.5514C72.9839 19.1702 74.3416 18.7825 74.6433 18.6899C74.945 18.5973 76.2615 18.2231 77.5688 17.8584C78.8761 17.4937 79.9639 17.181 79.986 17.1636C80.1077 17.0679 79.1206 14.8405 78.576 13.9821C77.6788 12.5681 76.5086 11.4625 75.382 10.9645C73.3266 10.0559 71.0015 10.7246 69.7135 12.5947C68.8359 13.869 68.4243 16.286 68.6942 18.5815C68.8618 20.0073 68.913 20.2445 69.0534 20.2445C69.1107 20.2445 70.2684 19.9326 71.6262 19.5514ZM29.8007 28.3017C29.8007 27.9577 29.8107 27.9467 30.1698 27.8986C30.6602 27.8328 31.105 27.4784 31.3683 26.9437L31.5834 26.507V19.7874C31.5834 14.3654 31.5595 13.0002 31.4594 12.7172C31.2593 12.151 30.8529 11.7609 30.2938 11.5984C29.8101 11.4578 29.8007 11.4485 29.8007 11.1112C29.8007 10.7754 29.8139 10.7619 30.3721 10.5332C30.6863 10.4043 31.4166 10.0851 31.9948 9.82377C32.573 9.56242 33.3238 9.23127 33.6633 9.08787L34.2804 8.82713V9.60351V10.3799L34.9085 9.74301C35.8992 8.7384 36.8445 8.35965 38.3612 8.35965C41.272 8.35965 43.0878 9.26011 44.0606 11.186L44.2645 11.5896L44.6193 10.9153C45.0817 10.0366 46.0047 9.09665 46.7206 8.77536C47.4981 8.42644 48.1639 8.33127 49.4107 8.39083C52.6312 8.54466 54.4015 9.92855 55.1016 12.8393C55.2216 13.338 55.2533 14.4997 55.2989 20.0617C55.3585 27.3425 55.3242 26.9305 55.9164 27.4786C56.2545 27.7915 56.5203 27.924 56.8099 27.924C57.0226 27.924 57.0445 27.9581 57.0445 28.2897V28.6554H53.9361H50.8278V28.2897C50.8278 27.9591 50.85 27.924 51.06 27.924C51.3907 27.924 51.9697 27.6064 52.181 27.309C52.2801 27.1696 52.4068 26.8909 52.4625 26.6898C52.5919 26.2226 52.6004 14.9949 52.4725 13.4513C52.285 11.1883 51.4043 9.65794 50.0432 9.22981C49.6564 9.10816 49.3103 9.07923 48.5605 9.10589C47.7001 9.13648 47.5108 9.17442 46.988 9.42101C46.0797 9.8495 45.4577 10.5507 44.938 11.7318L44.6811 12.3156L44.6968 19.1786C44.7065 23.4389 44.7478 26.2065 44.8057 26.4766C44.9721 27.2522 45.6094 27.924 46.1788 27.924C46.422 27.924 46.4395 27.9485 46.4395 28.2897V28.6554H43.3769H40.3142V28.2897C40.3142 27.9587 40.3363 27.924 40.5473 27.924C41.0353 27.924 41.5697 27.4923 41.8183 26.8972C42.0261 26.3999 42.0288 14.2654 41.8214 12.8851C41.5834 11.3009 41.2194 10.5142 40.3872 9.78628C39.7291 9.21054 39.1777 9.05747 37.951 9.10997C37.1241 9.14537 36.8946 9.19074 36.4288 9.41086C35.7463 9.73338 34.8758 10.6061 34.5278 11.3169L34.2752 11.8327L34.3006 19.2613C34.3281 27.2758 34.301 26.8487 34.8172 27.4065C35.116 27.7294 35.4798 27.924 35.7843 27.924C35.9953 27.924 36.0174 27.9587 36.0174 28.2897V28.6554H32.909H29.8007V28.3017ZM57.8673 28.2897C57.8673 27.9587 57.8894 27.924 58.1004 27.924C58.5883 27.924 59.1228 27.4923 59.3714 26.8972C59.4949 26.6017 59.5129 25.6826 59.5129 19.6885V12.8184L59.2707 12.3733C58.9968 11.8701 58.7551 11.6803 58.2574 11.5776C57.9343 11.5109 57.9113 11.4837 57.8856 11.1368L57.8583 10.7672L59.1656 10.1896C59.8846 9.87193 60.8637 9.43782 61.3413 9.22493L62.2099 8.83786L62.2556 17.7181L62.3013 26.5984L62.5158 27.0339C62.7516 27.5128 63.3214 27.924 63.7492 27.924C63.9722 27.924 63.9926 27.9546 63.9926 28.2897V28.6554H60.9299H57.8673V28.2897ZM59.7887 7.91428C59.4976 7.2543 58.6246 6.3725 57.922 6.02876L57.3951 5.77101L57.7907 5.63729C58.6569 5.34449 59.5117 4.48797 59.881 3.54285C59.9755 3.30086 60.0548 3.18456 60.0572 3.2844C60.073 3.95693 61.2534 5.29797 62.0915 5.59565C62.3326 5.68127 62.5297 5.77252 62.5295 5.79843C62.5293 5.82434 62.3339 5.92487 62.0952 6.02183C61.473 6.27464 60.4165 7.34931 60.1898 7.95999L60.0157 8.42884L59.7887 7.91428ZM78.3916 7.62235C76.9402 6.49273 75.6526 5.77762 74.8615 5.66175C73.9777 5.5323 72.5987 6.13499 70.9321 7.37905C69.8262 8.20455 69.8219 8.20471 70.4918 7.39581C70.8231 6.9957 71.2962 6.41777 71.5431 6.11152C71.79 5.80527 72.4458 5.00304 73.0004 4.32878C73.555 3.65453 74.1238 2.9508 74.2645 2.76495L74.5204 2.42702L74.7711 2.71924C74.909 2.87995 75.3025 3.36114 75.6456 3.78854C75.9886 4.21594 76.4036 4.73019 76.5679 4.93132C77.4278 5.98452 79.2552 8.26786 79.2363 8.26548C79.2242 8.26397 78.8441 7.97456 78.3916 7.62235Z" fill="white"/>
</svg>
