<svg width="24" height="24" viewBox="0 0 24 24" fill="none" xmlns="http://www.w3.org/2000/svg">
<g clip-path="url(#clip0_24_2)">
<path fill-rule="evenodd" clip-rule="evenodd" d="M20.4653 3.48773C18.2193 1.23984 15.2323 0.00126346 12.05 0C5.49284 0 0.156152 5.33464 0.153528 11.8918C0.152653 13.9878 0.700476 16.0338 1.74147 17.8373L0.0537796 24L6.36025 22.3463C8.09779 23.2937 10.0541 23.793 12.0452 23.7938H12.0501C18.6065 23.7938 23.9437 18.4585 23.9463 11.9013C23.9476 8.72359 22.7114 5.73561 20.4653 3.48773ZM12.0501 21.7852H12.046C10.2718 21.7845 8.53158 21.308 7.01349 20.4074L6.6524 20.1932L2.9101 21.1746L3.90901 17.527L3.67388 17.153C2.6841 15.5792 2.16132 13.7602 2.1621 11.8925C2.16427 6.4425 6.59995 2.00857 12.054 2.00857C14.695 2.00958 17.1776 3.0391 19.0445 4.90746C20.9113 6.77583 21.9388 9.25933 21.9378 11.9005C21.9355 17.3509 17.4999 21.7852 12.0501 21.7852ZM17.4737 14.3822C17.1765 14.2334 15.7151 13.5145 15.4426 13.4154C15.1701 13.3162 14.972 13.2666 14.7738 13.5641C14.5756 13.8616 14.006 14.5309 13.8325 14.7292C13.6592 14.9276 13.4858 14.9524 13.1885 14.8036C12.8913 14.6549 11.9335 14.3411 10.7981 13.3287C9.91452 12.5409 9.31791 11.5677 9.14452 11.2702C8.97113 10.9727 9.12609 10.8119 9.27488 10.6637C9.40858 10.5306 9.57212 10.3167 9.72075 10.1431C9.86936 9.96962 9.91889 9.84567 10.018 9.64738C10.1171 9.44905 10.0675 9.2755 9.99321 9.12677C9.91889 8.97803 9.32445 7.5154 9.07671 6.92044C8.83546 6.341 8.59038 6.4194 8.40792 6.41033C8.23473 6.40171 8.03637 6.39987 7.83823 6.39987C7.64007 6.39987 7.31805 6.47425 7.04556 6.77171C6.77311 7.06921 6.00525 7.78812 6.00525 9.25072C6.00525 10.7133 7.07034 12.1263 7.21898 12.3246C7.36758 12.523 9.31499 15.5245 12.2968 16.8116C13.006 17.1177 13.5597 17.3006 13.9914 17.4376C14.7035 17.6637 15.3515 17.6318 15.8637 17.5553C16.4347 17.47 17.6223 16.8364 17.87 16.1423C18.1177 15.4482 18.1177 14.8532 18.0434 14.7293C17.9691 14.6053 17.771 14.5309 17.4737 14.3822Z" fill="white"/>
</g>
<defs>
<clipPath id="clip0_24_2">
<rect width="24" height="24" fill="white"/>
</clipPath>
</defs>
</svg>
